HIERARCHY
ROOT Hips
{
  OFFSET 3.13124 94.3669 -3.18751
  CHANNELS  6 Xposition Yposition Zposition Zrotation Xrotation Yrotation
  JOINT LeftUpLeg
  {
    OFFSET 8.64259 1.95398 -2.38835
    CHANNELS 3 Zrotation Xrotation Yrotation
    JOINT LeftLeg
    {
      OFFSET 43.7702 0 0
      CHANNELS 3 Zrotation Xrotation Yrotation
      JOINT LeftFoot
      {
        OFFSET 40.6238 0 0
        CHANNELS 3 Zrotation Xrotation Yrotation
        JOINT LeftToeBase
        {
          OFFSET 12.7242 0 0
          CHANNELS 3 Zrotation Xrotation Yrotation
          End Site
          {
            OFFSET 0 0 0
          }
        }
      }
    }
  }
  JOINT RightUpLeg
  {
    OFFSET -8.2249 1.95398 -2.59336
    CHANNELS 3 Zrotation Xrotation Yrotation
    JOINT RightLeg
    {
      OFFSET 43.5653 0 0
      CHANNELS 3 Zrotation Xrotation Yrotation
      JOINT RightFoot
      {
        OFFSET 40.6238 0 0
        CHANNELS 3 Zrotation Xrotation Yrotation
        JOINT RightToeBase
        {
          OFFSET 12.7242 0 0
          CHANNELS 3 Zrotation Xrotation Yrotation
          End Site
          {
            OFFSET 0 0 0
          }
        }
      }
    }
  }
  JOINT Spine
  {
    OFFSET 0.165834 0.87714 6.61349
    CHANNELS 3 Zrotation Xrotation Yrotation
    JOINT Spine1
    {
      OFFSET 7.38962 1.71661e-005 0
      CHANNELS 3 Zrotation Xrotation Yrotation
      JOINT Spine2
      {
        OFFSET 11.9445 1.14441e-005 0
        CHANNELS 3 Zrotation Xrotation Yrotation
        JOINT Spine3
        {
          OFFSET 14.7254 4.19617e-005 0
          CHANNELS 3 Zrotation Xrotation Yrotation
          JOINT Spine4
          {
            OFFSET 10.9679 0 0
            CHANNELS 3 Zrotation Xrotation Yrotation
            JOINT RightShoulder
            {
              OFFSET 2.46616 -1.6653 3.69651
              CHANNELS 3 Zrotation Xrotation Yrotation
              JOINT RightArm
              {
                OFFSET 13.0012 0 0
                CHANNELS 3 Zrotation Xrotation Yrotation
                JOINT RightForeArm
                {
                  OFFSET 28.7848 1.52588e-005 0
                  CHANNELS 3 Zrotation Xrotation Yrotation
                  JOINT RightHand
                  {
                    OFFSET 26.5688 1.52588e-005 0
                    CHANNELS 3 Zrotation Xrotation Yrotation
                    End Site
                    {
                      OFFSET 0 0 0
                    }
                  }
                }
              }
            }
            JOINT LeftShoulder
            {
              OFFSET 2.38034 -1.29275 -3.75231
              CHANNELS 3 Zrotation Xrotation Yrotation
              JOINT LeftArm
              {
                OFFSET 16.3182 6.10352e-005 0
                CHANNELS 3 Zrotation Xrotation Yrotation
                JOINT LeftForeArm
                {
                  OFFSET 27.0901 0 0
                  CHANNELS 3 Zrotation Xrotation Yrotation
                  JOINT LeftHand
                  {
                    OFFSET 24.5451 1.52588e-005 0
                    CHANNELS 3 Zrotation Xrotation Yrotation
                    End Site
                    {
                      OFFSET 0 0 0
                    }
                  }
                }
              }
            }
            JOINT Neck
            {
              OFFSET 5.0226 -0.0266342 0
              CHANNELS 3 Zrotation Xrotation Yrotation
              JOINT Head
              {
                OFFSET 6.69363 2.86102e-005 0
                CHANNELS 3 Zrotation Xrotation Yrotation
                End Site
                {
                  OFFSET 0 0 0
                }
              }
            }
          }
        }
      }
    }
  }
}
MOTION
Frames:	12
Frame Time:	0.0333333
-3.92607 93.368 -0.0742251 -171.583 -87.4517 -169.424 -165.913 0.532394 101.389 -11.2841 11.3912 1.7369 67.9125 0.535369 0.343225 28.7808 5.3643e-006 7.53978e-006 179.749 0.908494 90.291 -17.415 1.71896 0.061059 71.2197 -6.02796 -3.04878 28.7808 1.29001e-005 2.61985e-005 0.355056 6.24366 -90.9866 14.3844 0.291854 -1.74753 2.71233 0.214623 -1.7587 -19.815 0.803477 -1.57912 0.197612 0.803474 -1.57913 91.0097 -55.5742 -98.1468 20.9755 18.6657 17.3703 26.2719 26.3138 -54.4853 4.2497 0.752333 13.0853 -94.3909 -67.487 76.4973 -15.4162 -18.663 11.8705 -7.95575 -10.8633 -47.0682 0.562419 0.655729 24.1579 -14.666 5.48818 14.3479 -28.8344 3.21598 9.33572 
-4.64808 93.2622 0.109676 -175.92 -87.2026 -173.581 -165.746 0.476599 101.982 -11.5413 11.6161 2.08194 68.1063 0.222806 0.187542 28.7808 5.3643e-006 7.53978e-006 -179.956 0.800078 91.0392 -18.0678 2.42108 0.097915 71.7357 -6.38281 -3.19909 28.7808 1.29001e-005 2.61985e-005 0.355998 6.26469 -91.0207 14.3422 0.287058 -1.78541 2.67 0.208226 -1.79631 -19.857 0.810122 -1.61667 0.155645 0.8101 -1.61668 90.9024 -55.7156 -98.2735 21.137 18.5672 17.4324 26.1407 26.3134 -54.3371 4.30806 0.762045 13.1066 -94.4842 -67.3579 76.354 -15.2515 -18.7602 12.3669 -7.76514 -10.5863 -47.2936 -0.672274 0.357431 25.1437 -14.8686 5.50887 14.4456 -28.716 3.24427 9.46043 
-5.41653 93.1157 0.273346 179.951 -86.96 -177.59 -165.67 0.425736 102.49 -11.7606 11.5495 2.44074 68.4294 -0.0158848 0.0794476 28.7808 5.3643e-006 7.53978e-006 -179.702 0.894486 91.7558 -19.0499 3.07916 0.130904 72.3523 -6.78651 -3.36252 28.7808 1.29001e-005 2.61985e-005 0.352018 6.27829 -91.0694 14.3145 0.27963 -1.80191 2.64236 0.200055 -1.8125 -19.8844 0.808653 -1.63443 0.128234 0.808653 -1.63443 90.7974 -55.8361 -98.4009 21.2749 18.4817 17.4453 25.9811 26.3004 -54.1681 4.23142 0.739687 12.8788 -94.5684 -67.2016 76.2159 -14.9975 -18.9134 12.6707 -7.80377 -10.5604 -47.489 -1.58745 0.123927 26.1987 -15.1972 5.50041 14.6236 -28.5438 3.29319 9.45335 
-6.22691 92.9662 0.421778 176.456 -86.7206 179.004 -165.732 0.44839 102.908 -12.1748 11.5403 2.99575 68.6571 -0.289819 -0.0482289 28.7808 5.3643e-006 7.53978e-006 -179.429 0.962095 92.4654 -19.9114 3.72775 0.164376 72.9776 -7.16923 -3.51053 28.7808 1.29001e-005 2.61985e-005 0.337381 6.28619 -91.1022 14.2984 0.260345 -1.78211 2.62625 0.181682 -1.79182 -19.9006 0.78384 -1.62153 0.112001 0.78383 -1.62155 90.5769 -56.0089 -98.683 21.3935 18.4078 17.3488 25.6419 26.1729 -53.9042 4.18188 0.73122 12.8579 -94.4951 -66.9612 76.255 -14.5388 -19.2058 12.9204 -8.19489 -10.8266 -47.8693 -2.57075 -0.147848 27.5816 -15.613 5.50934 14.4114 -28.3398 3.30152 9.79691 
-7.05436 92.7578 0.564513 171.874 -86.4283 174.532 -165.861 0.562578 103.302 -12.7619 11.2051 3.5922 69.2017 -0.490646 -0.122659 28.7808 5.3643e-006 7.53978e-006 -179.221 1.20642 93.2316 -21.1954 4.4692 0.201813 73.6908 -7.58082 -3.66129 28.7808 1.29001e-005 2.61985e-005 0.311831 6.30161 -91.1594 14.267 0.223772 -1.75583 2.59489 0.146265 -1.76394 -19.9321 0.74107 -1.60754 0.0805249 0.741066 -1.60754 90.3575 -56.2181 -98.9551 21.4657 18.3633 17.327 24.9018 25.6764 -53.537 4.39729 0.742368 12.3489 -94.2572 -66.6922 76.4947 -14.2295 -19.4088 12.7906 -7.31049 -9.95926 -47.7863 -3.64129 -0.477254 29.5022 -15.7781 5.63395 14.2213 -28.4043 3.3712 10.1096 
-7.89844 92.541 0.673274 167.01 -86.1625 169.751 -166.279 0.903403 103.547 -13.7623 10.7749 4.44469 69.6045 -0.9622 -0.33696 28.7808 5.3643e-006 7.53978e-006 -179.027 1.47745 93.9875 -22.3546 5.25729 0.244035 74.4224 -7.87413 -3.75117 28.7808 1.29001e-005 2.61985e-005 0.276148 6.3159 -91.2057 14.2382 0.178508 -1.68759 2.56618 0.104109 -1.69392 -19.9613 0.676922 -1.55523 0.0513112 0.676912 -1.55525 89.9998 -56.5009 -99.4072 21.5216 18.3249 17.1452 23.9183 25.0388 -53.0189 4.73358 0.783457 12.1312 -93.9006 -66.1816 76.8261 -14.3502 -19.3339 12.6454 -9.33383 -11.9444 -47.9843 -1.85966 0.0538209 27.1175 -15.9316 5.66546 13.6169 -28.3696 3.29501 10.6458 
-8.73631 92.3006 0.740283 161.851 -85.8364 164.662 -167.038 1.53247 103.64 -15.4178 9.89403 5.48363 69.8985 -1.54687 -0.612459 28.7808 5.3643e-006 7.53978e-006 -178.838 1.84255 94.7297 -23.6781 6.06902 0.288551 75.1634 -8.11658 -3.81187 28.7808 1.29001e-005 2.61985e-005 0.251062 6.33031 -91.3049 14.2088 0.133509 -1.70541 2.53676 0.0583185 -1.7097 -19.9904 0.639905 -1.58663 0.0222512 0.639891 -1.58665 89.9404 -56.1865 -99.5567 21.6634 18.2601 17.2212 23.0885 24.2218 -52.872 5.25966 0.868219 12.2225 -94.3304 -66.2834 76.3144 -14.2299 -19.4079 12.449 -8.74153 -11.4217 -47.7659 -1.68161 0.101282 26.6719 -16.1592 5.78002 14.3863 -28.3943 3.54883 10.2025 
-9.48575 92.065 0.73834 154.655 -85.5609 157.485 -168.395 2.60105 103.39 -17.7279 8.66765 6.78052 69.8579 -1.98164 -0.83713 28.7808 5.3643e-006 7.53978e-006 -178.721 2.39433 95.3572 -24.9546 7.00476 0.343355 75.7807 -8.19854 -3.81081 28.7808 1.29001e-005 2.61985e-005 0.227875 6.33728 -91.3994 14.1945 0.0949422 -1.69894 2.52243 0.0200695 -1.70158 -20.0047 0.60118 -1.59203 0.00799615 0.601171 -1.59207 89.9423 -55.9551 -99.6019 21.7019 18.248 17.2235 22.8825 23.89 -52.9772 5.66247 0.932501 12.2609 -94.5899 -66.2963 75.9923 -14.2253 -19.4528 11.9329 -8.88655 -11.5296 -47.8743 -1.61452 0.120368 26.7375 -16.3492 5.69852 14.7417 -28.1417 3.56777 10.0004 
-10.1517 91.912 0.697426 146.752 -85.117 149.637 -170.245 4.11592 102.911 -20.956 7.01582 8.26735 68.884 -2.05957 -0.936523 28.7808 5.3643e-006 7.53978e-006 -178.591 2.78403 95.9762 -25.8211 8.07981 0.408894 76.0731 -8.20947 -3.79834 28.7808 1.29001e-005 2.61985e-005 0.209535 6.35811 -91.4504 14.1515 0.0471641 -1.72701 2.47937 -0.0288968 -1.72742 -20.0473 0.564893 -1.63304 -0.034629 0.564881 -1.63306 89.8686 -55.7871 -99.7423 21.3515 18.4755 17.3748 23.634 24.0921 -53.6776 6.11373 1.02647 12.7015 -94.9039 -66.2887 75.5975 -14.4219 -19.3749 11.4018 -8.92178 -11.4311 -48.2355 -1.79217 0.0721329 26.9567 -16.344 5.62211 14.8563 -27.9365 3.50319 10.0109 
-10.7818 92.0615 0.641469 141.313 -84.4229 144.018 -172.325 6.00137 101.756 -25.2269 5.07545 10.2205 65.0183 -0.796425 -0.47124 28.7808 5.3643e-006 7.53978e-006 -178.307 2.11349 96.3675 -24.8865 9.33845 0.485066 75.6946 -8.23619 -3.84572 28.7808 1.29001e-005 2.61985e-005 0.217725 6.41038 -91.3049 14.0483 0.0307168 -1.78001 2.3761 -0.0476702 -1.77965 -20.15 0.564224 -1.68855 -0.137364 0.564201 -1.68859 89.8811 -55.5369 -99.7778 21.1979 18.5599 17.3702 22.6474 23.3905 -53.239 6.31135 1.03926 12.3917 -95.3845 -66.2326 74.9829 -15.0598 -19.0487 10.8429 -9.69844 -11.8925 -49.0493 -1.41301 0.178679 26.9826 -16.3709 5.45786 15.0052 -27.6578 3.38843 9.89974 
-11.3031 92.2244 0.521812 136.892 -83.6027 139.239 -174.573 7.65452 100.088 -28.9829 3.19385 12.3314 60.8546 1.34697 0.648084 28.7808 5.3643e-006 7.53978e-006 -178.171 1.62973 96.5017 -24.3426 10.465 0.549714 75.1412 -8.39056 -3.95601 28.7808 1.29001e-005 2.61985e-005 0.231021 6.48135 -91.1646 13.9067 0.0445874 -1.76772 2.23459 -0.0331615 -1.76785 -20.2917 0.573093 -1.67218 -0.279056 0.573081 -1.67219 89.7572 -55.5121 -99.9614 20.818 18.7826 17.4218 21.9218 22.8119 -52.9834 6.76849 1.10188 12.2744 -95.6375 -66.037 74.6212 -15.7775 -18.6462 10.3975 -8.79087 -10.7727 -49.6948 -2.46075 -0.115461 27.1869 -16.2488 5.31223 14.5787 -27.5677 3.19683 10.0446 
-11.6928 92.2873 0.381795 133.921 -82.7515 135.848 -176.82 9.06543 98.3625 -32.0866 1.34179 13.8863 57.6323 4.71725 2.76576 28.7808 5.3643e-006 7.53978e-006 -178.153 1.33409 96.4652 -24.287 11.4369 0.608348 75.0358 -8.32437 -3.93863 28.7808 1.29001e-005 2.61985e-005 0.270687 6.55702 -91.1361 13.7559 0.119233 -1.76897 2.08372 0.0412595 -1.77284 -20.4427 0.645443 -1.65206 -0.430104 0.645433 -1.65209 89.8641 -55.1544 -99.8825 20.7016 18.8391 17.6312 20.1125 21.4403 -52.2522 7.63871 1.19153 11.6767 -96.5417 -65.9935 73.4783 -16.5545 -18.1895 9.70416 -10.1657 -11.6926 -50.733 -2.26075 -0.0585856 27.5756 -16.5111 5.07024 14.5941 -27.2753 3.09585 9.65961 
